<mxfile host="Electron" agent="Mozilla/5.0 (Windows NT 10.0; Win64; x64) AppleWebKit/537.36 (KHTML, like Gecko) draw.io/28.0.6 Chrome/138.0.7204.100 Electron/37.2.3 Safari/537.36" version="28.0.6">
  <diagram name="Page-1" id="ZBUfV1LdVL5YXBKEHFSU">
    <mxGraphModel dx="2066" dy="1201" grid="1" gridSize="10" guides="1" tooltips="1" connect="1" arrows="1" fold="1" page="1" pageScale="1" pageWidth="827" pageHeight="1169" math="0" shadow="0">
      <root>
        <mxCell id="0" />
        <mxCell id="1" parent="0" />
        <mxCell id="u5eyHSC7dVjfNG4J1XqB-1" value="" style="rounded=0;whiteSpace=wrap;html=1;" vertex="1" parent="1">
          <mxGeometry x="320" y="120" width="200" height="470" as="geometry" />
        </mxCell>
        <mxCell id="u5eyHSC7dVjfNG4J1XqB-2" value="Admin" style="shape=umlActor;verticalLabelPosition=bottom;verticalAlign=top;html=1;outlineConnect=0;" vertex="1" parent="1">
          <mxGeometry x="120" y="440" width="40" height="80" as="geometry" />
        </mxCell>
        <mxCell id="u5eyHSC7dVjfNG4J1XqB-3" value="User" style="shape=umlActor;verticalLabelPosition=bottom;verticalAlign=top;html=1;outlineConnect=0;" vertex="1" parent="1">
          <mxGeometry x="120" y="240" width="40" height="80" as="geometry" />
        </mxCell>
        <mxCell id="u5eyHSC7dVjfNG4J1XqB-4" value="Sticky notes App" style="rounded=1;whiteSpace=wrap;html=1;fillColor=#1ba1e2;fontColor=#ffffff;strokeColor=#006EAF;" vertex="1" parent="1">
          <mxGeometry x="320" y="120" width="200" height="50" as="geometry" />
        </mxCell>
        <mxCell id="u5eyHSC7dVjfNG4J1XqB-5" value="Create Note" style="rounded=1;whiteSpace=wrap;html=1;fillColor=#a20025;fontColor=#ffffff;strokeColor=#6F0000;" vertex="1" parent="1">
          <mxGeometry x="320" y="170" width="200" height="60" as="geometry" />
        </mxCell>
        <mxCell id="u5eyHSC7dVjfNG4J1XqB-6" value="Update Note" style="rounded=1;whiteSpace=wrap;html=1;fillColor=#a20025;fontColor=#ffffff;strokeColor=#6F0000;" vertex="1" parent="1">
          <mxGeometry x="320" y="230" width="200" height="60" as="geometry" />
        </mxCell>
        <mxCell id="u5eyHSC7dVjfNG4J1XqB-7" value="Delete Note" style="rounded=1;whiteSpace=wrap;html=1;fillColor=#a20025;fontColor=#ffffff;strokeColor=#6F0000;" vertex="1" parent="1">
          <mxGeometry x="320" y="290" width="200" height="60" as="geometry" />
        </mxCell>
        <mxCell id="u5eyHSC7dVjfNG4J1XqB-8" value="Add Author" style="rounded=1;whiteSpace=wrap;html=1;fillColor=#a20025;fontColor=#ffffff;strokeColor=#6F0000;" vertex="1" parent="1">
          <mxGeometry x="320" y="350" width="200" height="60" as="geometry" />
        </mxCell>
        <mxCell id="u5eyHSC7dVjfNG4J1XqB-9" value="Grouping" style="rounded=1;whiteSpace=wrap;html=1;fillColor=#a20025;fontColor=#ffffff;strokeColor=#6F0000;" vertex="1" parent="1">
          <mxGeometry x="320" y="410" width="200" height="60" as="geometry" />
        </mxCell>
        <mxCell id="u5eyHSC7dVjfNG4J1XqB-10" value="Group permissions" style="rounded=1;whiteSpace=wrap;html=1;fillColor=#a20025;fontColor=#ffffff;strokeColor=#6F0000;" vertex="1" parent="1">
          <mxGeometry x="320" y="470" width="200" height="60" as="geometry" />
        </mxCell>
        <mxCell id="u5eyHSC7dVjfNG4J1XqB-11" value="Delete Author" style="rounded=1;whiteSpace=wrap;html=1;fillColor=#a20025;fontColor=#ffffff;strokeColor=#6F0000;" vertex="1" parent="1">
          <mxGeometry x="320" y="530" width="200" height="60" as="geometry" />
        </mxCell>
        <mxCell id="u5eyHSC7dVjfNG4J1XqB-13" value="" style="endArrow=none;html=1;rounded=0;entryX=0;entryY=0.5;entryDx=0;entryDy=0;strokeWidth=4;fillColor=#e3c800;strokeColor=#B09500;" edge="1" parent="1" target="u5eyHSC7dVjfNG4J1XqB-5">
          <mxGeometry width="50" height="50" relative="1" as="geometry">
            <mxPoint x="160" y="280" as="sourcePoint" />
            <mxPoint x="210" y="230" as="targetPoint" />
          </mxGeometry>
        </mxCell>
        <mxCell id="u5eyHSC7dVjfNG4J1XqB-14" value="" style="endArrow=none;html=1;rounded=0;entryX=0;entryY=0.5;entryDx=0;entryDy=0;strokeWidth=4;fillColor=#e3c800;strokeColor=#B09500;" edge="1" parent="1" target="u5eyHSC7dVjfNG4J1XqB-7">
          <mxGeometry width="50" height="50" relative="1" as="geometry">
            <mxPoint x="160" y="280" as="sourcePoint" />
            <mxPoint x="320" y="315" as="targetPoint" />
          </mxGeometry>
        </mxCell>
        <mxCell id="u5eyHSC7dVjfNG4J1XqB-16" value="" style="endArrow=none;html=1;rounded=0;strokeWidth=4;fillColor=#e3c800;strokeColor=#B09500;entryX=0;entryY=0.5;entryDx=0;entryDy=0;" edge="1" parent="1" target="u5eyHSC7dVjfNG4J1XqB-6">
          <mxGeometry width="50" height="50" relative="1" as="geometry">
            <mxPoint x="160" y="280" as="sourcePoint" />
            <mxPoint x="290" y="120" as="targetPoint" />
          </mxGeometry>
        </mxCell>
        <mxCell id="u5eyHSC7dVjfNG4J1XqB-17" value="" style="endArrow=none;html=1;rounded=0;strokeWidth=4;fillColor=#008a00;strokeColor=#005700;" edge="1" parent="1">
          <mxGeometry width="50" height="50" relative="1" as="geometry">
            <mxPoint x="160" y="480" as="sourcePoint" />
            <mxPoint x="320" y="200" as="targetPoint" />
          </mxGeometry>
        </mxCell>
        <mxCell id="u5eyHSC7dVjfNG4J1XqB-18" value="" style="endArrow=none;html=1;rounded=0;strokeWidth=4;fillColor=#008a00;strokeColor=#005700;" edge="1" parent="1">
          <mxGeometry width="50" height="50" relative="1" as="geometry">
            <mxPoint x="160" y="480" as="sourcePoint" />
            <mxPoint x="320" y="260" as="targetPoint" />
          </mxGeometry>
        </mxCell>
        <mxCell id="u5eyHSC7dVjfNG4J1XqB-19" value="" style="endArrow=none;html=1;rounded=0;strokeWidth=4;fillColor=#008a00;strokeColor=#005700;entryX=0.005;entryY=0.423;entryDx=0;entryDy=0;entryPerimeter=0;" edge="1" parent="1" target="u5eyHSC7dVjfNG4J1XqB-1">
          <mxGeometry width="50" height="50" relative="1" as="geometry">
            <mxPoint x="160" y="480" as="sourcePoint" />
            <mxPoint x="330" y="270" as="targetPoint" />
          </mxGeometry>
        </mxCell>
        <mxCell id="u5eyHSC7dVjfNG4J1XqB-20" value="" style="endArrow=none;html=1;rounded=0;strokeWidth=4;fillColor=#008a00;strokeColor=#005700;entryX=0;entryY=0.5;entryDx=0;entryDy=0;" edge="1" parent="1" target="u5eyHSC7dVjfNG4J1XqB-8">
          <mxGeometry width="50" height="50" relative="1" as="geometry">
            <mxPoint x="160" y="480" as="sourcePoint" />
            <mxPoint x="331" y="329" as="targetPoint" />
          </mxGeometry>
        </mxCell>
        <mxCell id="u5eyHSC7dVjfNG4J1XqB-21" value="" style="endArrow=none;html=1;rounded=0;strokeWidth=4;fillColor=#008a00;strokeColor=#005700;entryX=0;entryY=0.5;entryDx=0;entryDy=0;" edge="1" parent="1" target="u5eyHSC7dVjfNG4J1XqB-9">
          <mxGeometry width="50" height="50" relative="1" as="geometry">
            <mxPoint x="160" y="480" as="sourcePoint" />
            <mxPoint x="330" y="390" as="targetPoint" />
          </mxGeometry>
        </mxCell>
        <mxCell id="u5eyHSC7dVjfNG4J1XqB-22" value="" style="endArrow=none;html=1;rounded=0;strokeWidth=4;fillColor=#008a00;strokeColor=#005700;entryX=0;entryY=0.5;entryDx=0;entryDy=0;" edge="1" parent="1" target="u5eyHSC7dVjfNG4J1XqB-10">
          <mxGeometry width="50" height="50" relative="1" as="geometry">
            <mxPoint x="160" y="480" as="sourcePoint" />
            <mxPoint x="330" y="450" as="targetPoint" />
          </mxGeometry>
        </mxCell>
        <mxCell id="u5eyHSC7dVjfNG4J1XqB-23" value="" style="endArrow=none;html=1;rounded=0;strokeWidth=4;fillColor=#008a00;strokeColor=#005700;entryX=0;entryY=0.5;entryDx=0;entryDy=0;" edge="1" parent="1" target="u5eyHSC7dVjfNG4J1XqB-11">
          <mxGeometry width="50" height="50" relative="1" as="geometry">
            <mxPoint x="160" y="480" as="sourcePoint" />
            <mxPoint x="330" y="510" as="targetPoint" />
          </mxGeometry>
        </mxCell>
        <mxCell id="u5eyHSC7dVjfNG4J1XqB-24" value="Storage (database)" style="whiteSpace=wrap;html=1;aspect=fixed;fillColor=#f0a30a;fontColor=#000000;strokeColor=#BD7000;" vertex="1" parent="1">
          <mxGeometry x="630" y="290" width="130" height="130" as="geometry" />
        </mxCell>
        <mxCell id="u5eyHSC7dVjfNG4J1XqB-25" value="" style="endArrow=none;html=1;rounded=0;strokeWidth=4;fillColor=#008a00;strokeColor=#005700;entryX=0;entryY=0.5;entryDx=0;entryDy=0;exitX=0;exitY=1;exitDx=0;exitDy=0;" edge="1" parent="1" source="u5eyHSC7dVjfNG4J1XqB-24">
          <mxGeometry width="50" height="50" relative="1" as="geometry">
            <mxPoint x="690" y="470" as="sourcePoint" />
            <mxPoint x="520" y="560" as="targetPoint" />
          </mxGeometry>
        </mxCell>
        <mxCell id="u5eyHSC7dVjfNG4J1XqB-26" value="" style="endArrow=none;html=1;rounded=0;strokeWidth=4;fillColor=#008a00;strokeColor=#005700;entryX=0;entryY=0.75;entryDx=0;entryDy=0;" edge="1" parent="1" target="u5eyHSC7dVjfNG4J1XqB-24">
          <mxGeometry width="50" height="50" relative="1" as="geometry">
            <mxPoint x="520" y="380" as="sourcePoint" />
            <mxPoint x="680" y="400" as="targetPoint" />
          </mxGeometry>
        </mxCell>
        <mxCell id="u5eyHSC7dVjfNG4J1XqB-27" value="" style="endArrow=none;html=1;rounded=0;strokeWidth=4;fillColor=#008a00;strokeColor=#005700;entryX=0;entryY=0.75;entryDx=0;entryDy=0;" edge="1" parent="1" target="u5eyHSC7dVjfNG4J1XqB-24">
          <mxGeometry width="50" height="50" relative="1" as="geometry">
            <mxPoint x="520" y="440" as="sourcePoint" />
            <mxPoint x="630" y="420" as="targetPoint" />
          </mxGeometry>
        </mxCell>
        <mxCell id="u5eyHSC7dVjfNG4J1XqB-28" value="" style="endArrow=none;html=1;rounded=0;strokeWidth=4;fillColor=#008a00;strokeColor=#005700;entryX=0;entryY=1;entryDx=0;entryDy=0;" edge="1" parent="1" target="u5eyHSC7dVjfNG4J1XqB-24">
          <mxGeometry width="50" height="50" relative="1" as="geometry">
            <mxPoint x="520" y="500" as="sourcePoint" />
            <mxPoint x="680" y="400" as="targetPoint" />
          </mxGeometry>
        </mxCell>
        <mxCell id="u5eyHSC7dVjfNG4J1XqB-29" value="" style="endArrow=none;html=1;rounded=0;strokeWidth=4;fillColor=#008a00;strokeColor=#005700;entryX=0.031;entryY=0.562;entryDx=0;entryDy=0;entryPerimeter=0;" edge="1" parent="1" target="u5eyHSC7dVjfNG4J1XqB-24">
          <mxGeometry width="50" height="50" relative="1" as="geometry">
            <mxPoint x="520" y="320" as="sourcePoint" />
            <mxPoint x="681" y="159" as="targetPoint" />
          </mxGeometry>
        </mxCell>
        <mxCell id="u5eyHSC7dVjfNG4J1XqB-30" value="" style="endArrow=none;html=1;rounded=0;strokeWidth=4;fillColor=#008a00;strokeColor=#005700;entryX=0;entryY=0.25;entryDx=0;entryDy=0;" edge="1" parent="1" target="u5eyHSC7dVjfNG4J1XqB-24">
          <mxGeometry width="50" height="50" relative="1" as="geometry">
            <mxPoint x="520" y="260" as="sourcePoint" />
            <mxPoint x="680" y="40" as="targetPoint" />
          </mxGeometry>
        </mxCell>
        <mxCell id="u5eyHSC7dVjfNG4J1XqB-31" value="" style="endArrow=none;html=1;rounded=0;strokeWidth=4;fillColor=#008a00;strokeColor=#005700;entryX=0;entryY=0;entryDx=0;entryDy=0;" edge="1" parent="1" target="u5eyHSC7dVjfNG4J1XqB-24">
          <mxGeometry width="50" height="50" relative="1" as="geometry">
            <mxPoint x="520" y="200" as="sourcePoint" />
            <mxPoint x="640" y="100" as="targetPoint" />
          </mxGeometry>
        </mxCell>
      </root>
    </mxGraphModel>
  </diagram>
</mxfile>
